<mxfile host="app.diagrams.net" modified="2023-06-12T15:55:18.964Z" agent="Mozilla/5.0 (Windows NT 10.0; Win64; x64) AppleWebKit/537.36 (KHTML, like Gecko) Chrome/112.0.0.0 YaBrowser/23.5.2.625 Yowser/2.5 Safari/537.36" etag="RA4Lp1Iq90H2AsePG_G9" version="21.3.8" type="device">
  <diagram name="Страница 1" id="f8oXqzVL_PanavKwER8w">
    <mxGraphModel dx="1002" dy="575" grid="1" gridSize="10" guides="1" tooltips="1" connect="1" arrows="1" fold="1" page="1" pageScale="1" pageWidth="827" pageHeight="1169" math="0" shadow="0">
      <root>
        <mxCell id="0" />
        <mxCell id="1" parent="0" />
        <mxCell id="cqMBGFqOgWDOON9ElvoC-25" style="edgeStyle=orthogonalEdgeStyle;rounded=0;orthogonalLoop=1;jettySize=auto;html=1;entryX=0.5;entryY=0;entryDx=0;entryDy=0;endArrow=none;endFill=0;" parent="1" source="cqMBGFqOgWDOON9ElvoC-1" target="cqMBGFqOgWDOON9ElvoC-2" edge="1">
          <mxGeometry relative="1" as="geometry">
            <Array as="points">
              <mxPoint x="590" y="100" />
              <mxPoint x="180" y="100" />
            </Array>
          </mxGeometry>
        </mxCell>
        <mxCell id="cqMBGFqOgWDOON9ElvoC-26" style="edgeStyle=orthogonalEdgeStyle;rounded=0;orthogonalLoop=1;jettySize=auto;html=1;entryX=0.5;entryY=0;entryDx=0;entryDy=0;endArrow=none;endFill=0;" parent="1" source="cqMBGFqOgWDOON9ElvoC-1" target="cqMBGFqOgWDOON9ElvoC-3" edge="1">
          <mxGeometry relative="1" as="geometry">
            <Array as="points">
              <mxPoint x="590" y="100" />
              <mxPoint x="630" y="100" />
            </Array>
          </mxGeometry>
        </mxCell>
        <mxCell id="cqMBGFqOgWDOON9ElvoC-27" style="edgeStyle=orthogonalEdgeStyle;rounded=0;orthogonalLoop=1;jettySize=auto;html=1;entryX=0.5;entryY=0;entryDx=0;entryDy=0;endArrow=none;endFill=0;" parent="1" source="cqMBGFqOgWDOON9ElvoC-1" target="cqMBGFqOgWDOON9ElvoC-4" edge="1">
          <mxGeometry relative="1" as="geometry">
            <Array as="points">
              <mxPoint x="590" y="100" />
              <mxPoint x="400" y="100" />
            </Array>
          </mxGeometry>
        </mxCell>
        <mxCell id="cqMBGFqOgWDOON9ElvoC-28" style="edgeStyle=orthogonalEdgeStyle;rounded=0;orthogonalLoop=1;jettySize=auto;html=1;entryX=0.5;entryY=0;entryDx=0;entryDy=0;endArrow=none;endFill=0;" parent="1" source="cqMBGFqOgWDOON9ElvoC-1" target="cqMBGFqOgWDOON9ElvoC-6" edge="1">
          <mxGeometry relative="1" as="geometry">
            <Array as="points">
              <mxPoint x="590" y="100" />
              <mxPoint x="840" y="100" />
            </Array>
          </mxGeometry>
        </mxCell>
        <mxCell id="cqMBGFqOgWDOON9ElvoC-29" style="edgeStyle=orthogonalEdgeStyle;rounded=0;orthogonalLoop=1;jettySize=auto;html=1;entryX=0.5;entryY=0;entryDx=0;entryDy=0;endArrow=none;endFill=0;" parent="1" source="cqMBGFqOgWDOON9ElvoC-1" target="cqMBGFqOgWDOON9ElvoC-7" edge="1">
          <mxGeometry relative="1" as="geometry">
            <Array as="points">
              <mxPoint x="590" y="100" />
              <mxPoint x="1010" y="100" />
            </Array>
          </mxGeometry>
        </mxCell>
        <mxCell id="cqMBGFqOgWDOON9ElvoC-1" value="Открытие ночного клуба" style="rounded=0;whiteSpace=wrap;html=1;" parent="1" vertex="1">
          <mxGeometry x="510" y="40" width="160" height="40" as="geometry" />
        </mxCell>
        <mxCell id="cqMBGFqOgWDOON9ElvoC-30" style="edgeStyle=orthogonalEdgeStyle;rounded=0;orthogonalLoop=1;jettySize=auto;html=1;entryX=0;entryY=0.5;entryDx=0;entryDy=0;endArrow=none;endFill=0;" parent="1" source="cqMBGFqOgWDOON9ElvoC-2" target="cqMBGFqOgWDOON9ElvoC-12" edge="1">
          <mxGeometry relative="1" as="geometry">
            <Array as="points">
              <mxPoint x="130" y="585" />
            </Array>
          </mxGeometry>
        </mxCell>
        <mxCell id="cqMBGFqOgWDOON9ElvoC-31" style="edgeStyle=orthogonalEdgeStyle;rounded=0;orthogonalLoop=1;jettySize=auto;html=1;entryX=0;entryY=0.5;entryDx=0;entryDy=0;endArrow=none;endFill=0;" parent="1" source="cqMBGFqOgWDOON9ElvoC-2" target="cqMBGFqOgWDOON9ElvoC-11" edge="1">
          <mxGeometry relative="1" as="geometry">
            <Array as="points">
              <mxPoint x="130" y="500" />
            </Array>
          </mxGeometry>
        </mxCell>
        <mxCell id="cqMBGFqOgWDOON9ElvoC-32" style="edgeStyle=orthogonalEdgeStyle;rounded=0;orthogonalLoop=1;jettySize=auto;html=1;entryX=0;entryY=0.5;entryDx=0;entryDy=0;endArrow=none;endFill=0;" parent="1" source="cqMBGFqOgWDOON9ElvoC-2" target="cqMBGFqOgWDOON9ElvoC-10" edge="1">
          <mxGeometry relative="1" as="geometry">
            <Array as="points">
              <mxPoint x="130" y="230" />
            </Array>
          </mxGeometry>
        </mxCell>
        <mxCell id="cqMBGFqOgWDOON9ElvoC-33" style="edgeStyle=orthogonalEdgeStyle;rounded=0;orthogonalLoop=1;jettySize=auto;html=1;entryX=0;entryY=0.5;entryDx=0;entryDy=0;endArrow=none;endFill=0;" parent="1" source="cqMBGFqOgWDOON9ElvoC-2" target="cqMBGFqOgWDOON9ElvoC-9" edge="1">
          <mxGeometry relative="1" as="geometry">
            <Array as="points">
              <mxPoint x="130" y="410" />
              <mxPoint x="150" y="410" />
            </Array>
          </mxGeometry>
        </mxCell>
        <mxCell id="cqMBGFqOgWDOON9ElvoC-34" style="edgeStyle=orthogonalEdgeStyle;rounded=0;orthogonalLoop=1;jettySize=auto;html=1;entryX=0;entryY=0.5;entryDx=0;entryDy=0;endArrow=none;endFill=0;" parent="1" source="cqMBGFqOgWDOON9ElvoC-2" target="cqMBGFqOgWDOON9ElvoC-8" edge="1">
          <mxGeometry relative="1" as="geometry">
            <Array as="points">
              <mxPoint x="130" y="315" />
            </Array>
          </mxGeometry>
        </mxCell>
        <mxCell id="cqMBGFqOgWDOON9ElvoC-2" value="Составление бизнес-плана&lt;br&gt;1.0" style="rounded=0;whiteSpace=wrap;html=1;" parent="1" vertex="1">
          <mxGeometry x="120" y="120" width="120" height="60" as="geometry" />
        </mxCell>
        <mxCell id="cqMBGFqOgWDOON9ElvoC-35" style="edgeStyle=orthogonalEdgeStyle;rounded=0;orthogonalLoop=1;jettySize=auto;html=1;entryX=0;entryY=0.5;entryDx=0;entryDy=0;endArrow=none;endFill=0;" parent="1" source="cqMBGFqOgWDOON9ElvoC-3" target="cqMBGFqOgWDOON9ElvoC-16" edge="1">
          <mxGeometry relative="1" as="geometry">
            <Array as="points">
              <mxPoint x="580" y="500" />
            </Array>
          </mxGeometry>
        </mxCell>
        <mxCell id="cqMBGFqOgWDOON9ElvoC-36" style="edgeStyle=orthogonalEdgeStyle;rounded=0;orthogonalLoop=1;jettySize=auto;html=1;entryX=0;entryY=0.5;entryDx=0;entryDy=0;endArrow=none;endFill=0;" parent="1" source="cqMBGFqOgWDOON9ElvoC-3" target="cqMBGFqOgWDOON9ElvoC-15" edge="1">
          <mxGeometry relative="1" as="geometry">
            <Array as="points">
              <mxPoint x="580" y="410" />
            </Array>
          </mxGeometry>
        </mxCell>
        <mxCell id="cqMBGFqOgWDOON9ElvoC-37" style="edgeStyle=orthogonalEdgeStyle;rounded=0;orthogonalLoop=1;jettySize=auto;html=1;entryX=0;entryY=0.5;entryDx=0;entryDy=0;endArrow=none;endFill=0;" parent="1" source="cqMBGFqOgWDOON9ElvoC-3" target="cqMBGFqOgWDOON9ElvoC-14" edge="1">
          <mxGeometry relative="1" as="geometry">
            <Array as="points">
              <mxPoint x="580" y="320" />
            </Array>
          </mxGeometry>
        </mxCell>
        <mxCell id="cqMBGFqOgWDOON9ElvoC-38" style="edgeStyle=orthogonalEdgeStyle;rounded=0;orthogonalLoop=1;jettySize=auto;html=1;entryX=0;entryY=0.5;entryDx=0;entryDy=0;endArrow=none;endFill=0;" parent="1" source="cqMBGFqOgWDOON9ElvoC-3" target="cqMBGFqOgWDOON9ElvoC-13" edge="1">
          <mxGeometry relative="1" as="geometry">
            <Array as="points">
              <mxPoint x="580" y="235" />
            </Array>
          </mxGeometry>
        </mxCell>
        <mxCell id="cqMBGFqOgWDOON9ElvoC-3" value="Подготовка помещения&lt;br&gt;3.0" style="rounded=0;whiteSpace=wrap;html=1;" parent="1" vertex="1">
          <mxGeometry x="570" y="120" width="120" height="60" as="geometry" />
        </mxCell>
        <mxCell id="cqMBGFqOgWDOON9ElvoC-39" style="edgeStyle=orthogonalEdgeStyle;rounded=0;orthogonalLoop=1;jettySize=auto;html=1;entryX=0;entryY=0.5;entryDx=0;entryDy=0;endArrow=none;endFill=0;" parent="1" source="cqMBGFqOgWDOON9ElvoC-4" target="cqMBGFqOgWDOON9ElvoC-18" edge="1">
          <mxGeometry relative="1" as="geometry">
            <Array as="points">
              <mxPoint x="360" y="350" />
            </Array>
          </mxGeometry>
        </mxCell>
        <mxCell id="cqMBGFqOgWDOON9ElvoC-40" style="edgeStyle=orthogonalEdgeStyle;rounded=0;orthogonalLoop=1;jettySize=auto;html=1;entryX=0;entryY=0.5;entryDx=0;entryDy=0;endArrow=none;endFill=0;" parent="1" source="cqMBGFqOgWDOON9ElvoC-4" target="cqMBGFqOgWDOON9ElvoC-17" edge="1">
          <mxGeometry relative="1" as="geometry">
            <Array as="points">
              <mxPoint x="360" y="250" />
            </Array>
          </mxGeometry>
        </mxCell>
        <mxCell id="cqMBGFqOgWDOON9ElvoC-4" value="Получение необходимых разрешений&lt;br&gt;2.0" style="rounded=0;whiteSpace=wrap;html=1;" parent="1" vertex="1">
          <mxGeometry x="340" y="120" width="120" height="60" as="geometry" />
        </mxCell>
        <mxCell id="cqMBGFqOgWDOON9ElvoC-41" style="edgeStyle=orthogonalEdgeStyle;rounded=0;orthogonalLoop=1;jettySize=auto;html=1;entryX=0;entryY=0.5;entryDx=0;entryDy=0;endArrow=none;endFill=0;" parent="1" source="cqMBGFqOgWDOON9ElvoC-6" target="cqMBGFqOgWDOON9ElvoC-21" edge="1">
          <mxGeometry relative="1" as="geometry">
            <Array as="points">
              <mxPoint x="780" y="480" />
              <mxPoint x="800" y="480" />
            </Array>
          </mxGeometry>
        </mxCell>
        <mxCell id="cqMBGFqOgWDOON9ElvoC-42" style="edgeStyle=orthogonalEdgeStyle;rounded=0;orthogonalLoop=1;jettySize=auto;html=1;entryX=0;entryY=0.5;entryDx=0;entryDy=0;endArrow=none;endFill=0;" parent="1" source="cqMBGFqOgWDOON9ElvoC-6" target="cqMBGFqOgWDOON9ElvoC-20" edge="1">
          <mxGeometry relative="1" as="geometry">
            <Array as="points">
              <mxPoint x="780" y="400" />
              <mxPoint x="800" y="400" />
            </Array>
          </mxGeometry>
        </mxCell>
        <mxCell id="cqMBGFqOgWDOON9ElvoC-43" style="edgeStyle=orthogonalEdgeStyle;rounded=0;orthogonalLoop=1;jettySize=auto;html=1;entryX=0;entryY=0.5;entryDx=0;entryDy=0;endArrow=none;endFill=0;" parent="1" source="cqMBGFqOgWDOON9ElvoC-6" target="cqMBGFqOgWDOON9ElvoC-19" edge="1">
          <mxGeometry relative="1" as="geometry">
            <Array as="points">
              <mxPoint x="780" y="300" />
              <mxPoint x="800" y="300" />
            </Array>
          </mxGeometry>
        </mxCell>
        <mxCell id="GSTDGdenrgdqHvGgqOck-3" style="edgeStyle=orthogonalEdgeStyle;rounded=0;orthogonalLoop=1;jettySize=auto;html=1;entryX=0;entryY=0.5;entryDx=0;entryDy=0;endArrow=none;endFill=0;" parent="1" source="cqMBGFqOgWDOON9ElvoC-6" target="GSTDGdenrgdqHvGgqOck-2" edge="1">
          <mxGeometry relative="1" as="geometry">
            <Array as="points">
              <mxPoint x="780" y="225" />
            </Array>
          </mxGeometry>
        </mxCell>
        <mxCell id="cqMBGFqOgWDOON9ElvoC-6" value="Разработка сайта&lt;br&gt;4.0" style="rounded=0;whiteSpace=wrap;html=1;" parent="1" vertex="1">
          <mxGeometry x="760" y="120" width="120" height="60" as="geometry" />
        </mxCell>
        <mxCell id="cqMBGFqOgWDOON9ElvoC-44" style="edgeStyle=orthogonalEdgeStyle;rounded=0;orthogonalLoop=1;jettySize=auto;html=1;entryX=0;entryY=0.5;entryDx=0;entryDy=0;endArrow=none;endFill=0;" parent="1" source="cqMBGFqOgWDOON9ElvoC-7" target="cqMBGFqOgWDOON9ElvoC-24" edge="1">
          <mxGeometry relative="1" as="geometry">
            <Array as="points">
              <mxPoint x="970" y="500" />
              <mxPoint x="990" y="500" />
            </Array>
          </mxGeometry>
        </mxCell>
        <mxCell id="cqMBGFqOgWDOON9ElvoC-45" style="edgeStyle=orthogonalEdgeStyle;rounded=0;orthogonalLoop=1;jettySize=auto;html=1;entryX=0;entryY=0.5;entryDx=0;entryDy=0;endArrow=none;endFill=0;" parent="1" source="cqMBGFqOgWDOON9ElvoC-7" target="cqMBGFqOgWDOON9ElvoC-23" edge="1">
          <mxGeometry relative="1" as="geometry">
            <Array as="points">
              <mxPoint x="970" y="400" />
              <mxPoint x="990" y="400" />
            </Array>
          </mxGeometry>
        </mxCell>
        <mxCell id="cqMBGFqOgWDOON9ElvoC-46" style="edgeStyle=orthogonalEdgeStyle;rounded=0;orthogonalLoop=1;jettySize=auto;html=1;entryX=0;entryY=0.5;entryDx=0;entryDy=0;endArrow=none;endFill=0;" parent="1" source="cqMBGFqOgWDOON9ElvoC-7" target="cqMBGFqOgWDOON9ElvoC-22" edge="1">
          <mxGeometry relative="1" as="geometry">
            <Array as="points">
              <mxPoint x="970" y="320" />
              <mxPoint x="990" y="320" />
            </Array>
          </mxGeometry>
        </mxCell>
        <mxCell id="GSTDGdenrgdqHvGgqOck-5" style="edgeStyle=orthogonalEdgeStyle;rounded=0;orthogonalLoop=1;jettySize=auto;html=1;entryX=0;entryY=0.5;entryDx=0;entryDy=0;endArrow=none;endFill=0;" parent="1" source="cqMBGFqOgWDOON9ElvoC-7" target="GSTDGdenrgdqHvGgqOck-1" edge="1">
          <mxGeometry relative="1" as="geometry">
            <Array as="points">
              <mxPoint x="970" y="225" />
            </Array>
          </mxGeometry>
        </mxCell>
        <mxCell id="GSTDGdenrgdqHvGgqOck-6" style="edgeStyle=orthogonalEdgeStyle;rounded=0;orthogonalLoop=1;jettySize=auto;html=1;entryX=0;entryY=0.5;entryDx=0;entryDy=0;endArrow=none;endFill=0;" parent="1" source="cqMBGFqOgWDOON9ElvoC-7" target="GSTDGdenrgdqHvGgqOck-4" edge="1">
          <mxGeometry relative="1" as="geometry">
            <Array as="points">
              <mxPoint x="970" y="600" />
              <mxPoint x="990" y="600" />
            </Array>
          </mxGeometry>
        </mxCell>
        <mxCell id="cqMBGFqOgWDOON9ElvoC-7" value="Открытие проекта&lt;br&gt;5.0" style="rounded=0;whiteSpace=wrap;html=1;" parent="1" vertex="1">
          <mxGeometry x="950" y="120" width="120" height="60" as="geometry" />
        </mxCell>
        <mxCell id="cqMBGFqOgWDOON9ElvoC-8" value="Анализ посещаемости водоемов 1.2" style="rounded=0;whiteSpace=wrap;html=1;" parent="1" vertex="1">
          <mxGeometry x="150" y="290" width="120" height="50" as="geometry" />
        </mxCell>
        <mxCell id="cqMBGFqOgWDOON9ElvoC-9" value="Анализ конкурентов&lt;br&gt;1.3" style="rounded=0;whiteSpace=wrap;html=1;" parent="1" vertex="1">
          <mxGeometry x="150" y="375" width="120" height="60" as="geometry" />
        </mxCell>
        <mxCell id="cqMBGFqOgWDOON9ElvoC-10" value="Анализ загрязнений&lt;br&gt;1.1" style="rounded=0;whiteSpace=wrap;html=1;" parent="1" vertex="1">
          <mxGeometry x="150" y="210" width="120" height="40" as="geometry" />
        </mxCell>
        <mxCell id="cqMBGFqOgWDOON9ElvoC-11" value="Подсчёт временных и финансовых затрат&lt;br&gt;1.4" style="rounded=0;whiteSpace=wrap;html=1;" parent="1" vertex="1">
          <mxGeometry x="150" y="470" width="120" height="60" as="geometry" />
        </mxCell>
        <mxCell id="cqMBGFqOgWDOON9ElvoC-12" value="Подсчёт теоретической&amp;nbsp; прибыли 1.5" style="rounded=0;whiteSpace=wrap;html=1;" parent="1" vertex="1">
          <mxGeometry x="150" y="560" width="120" height="50" as="geometry" />
        </mxCell>
        <mxCell id="cqMBGFqOgWDOON9ElvoC-13" value="Поиск подходящего помещения&lt;br&gt;3.1" style="rounded=0;whiteSpace=wrap;html=1;" parent="1" vertex="1">
          <mxGeometry x="600" y="210" width="120" height="50" as="geometry" />
        </mxCell>
        <mxCell id="cqMBGFqOgWDOON9ElvoC-14" value="Закупка оборудования&lt;br&gt;3.2" style="rounded=0;whiteSpace=wrap;html=1;" parent="1" vertex="1">
          <mxGeometry x="600" y="290" width="120" height="60" as="geometry" />
        </mxCell>
        <mxCell id="cqMBGFqOgWDOON9ElvoC-15" value="Настройка оборудования&lt;br&gt;3.3" style="rounded=0;whiteSpace=wrap;html=1;" parent="1" vertex="1">
          <mxGeometry x="600" y="380" width="120" height="60" as="geometry" />
        </mxCell>
        <mxCell id="cqMBGFqOgWDOON9ElvoC-16" value="Установка оборудования&lt;br&gt;3.4" style="rounded=0;whiteSpace=wrap;html=1;" parent="1" vertex="1">
          <mxGeometry x="600" y="470" width="120" height="60" as="geometry" />
        </mxCell>
        <mxCell id="cqMBGFqOgWDOON9ElvoC-17" value="Подготовка документов для согласования работ&lt;br&gt;2.1" style="rounded=0;whiteSpace=wrap;html=1;" parent="1" vertex="1">
          <mxGeometry x="380" y="210" width="120" height="80" as="geometry" />
        </mxCell>
        <mxCell id="cqMBGFqOgWDOON9ElvoC-18" value="Отправка документов в необходимые&amp;nbsp; гос. органы&amp;nbsp;&lt;br&gt;2.2" style="rounded=0;whiteSpace=wrap;html=1;" parent="1" vertex="1">
          <mxGeometry x="380" y="310" width="120" height="80" as="geometry" />
        </mxCell>
        <mxCell id="cqMBGFqOgWDOON9ElvoC-19" value="Создание веб-дизайна сайта&lt;br&gt;4.2" style="rounded=0;whiteSpace=wrap;html=1;" parent="1" vertex="1">
          <mxGeometry x="800" y="280" width="120" height="50" as="geometry" />
        </mxCell>
        <mxCell id="cqMBGFqOgWDOON9ElvoC-20" value="Программная реализация сайта&lt;br&gt;4.3" style="rounded=0;whiteSpace=wrap;html=1;" parent="1" vertex="1">
          <mxGeometry x="800" y="370" width="120" height="50" as="geometry" />
        </mxCell>
        <mxCell id="cqMBGFqOgWDOON9ElvoC-21" value="Тестирование сайта&lt;br&gt;4.4" style="rounded=0;whiteSpace=wrap;html=1;" parent="1" vertex="1">
          <mxGeometry x="800" y="460" width="120" height="50" as="geometry" />
        </mxCell>
        <mxCell id="cqMBGFqOgWDOON9ElvoC-22" value="Проверка готовности документов&lt;br&gt;5.2" style="rounded=0;whiteSpace=wrap;html=1;" parent="1" vertex="1">
          <mxGeometry x="990" y="290" width="120" height="50" as="geometry" />
        </mxCell>
        <mxCell id="cqMBGFqOgWDOON9ElvoC-23" value="Проверка готовности работников&lt;br&gt;5.3" style="rounded=0;whiteSpace=wrap;html=1;" parent="1" vertex="1">
          <mxGeometry x="990" y="370" width="120" height="70" as="geometry" />
        </mxCell>
        <mxCell id="cqMBGFqOgWDOON9ElvoC-24" value="Проверка готовности оборудования&amp;nbsp;&lt;br&gt;5.4" style="rounded=0;whiteSpace=wrap;html=1;" parent="1" vertex="1">
          <mxGeometry x="990" y="470" width="120" height="70" as="geometry" />
        </mxCell>
        <mxCell id="GSTDGdenrgdqHvGgqOck-1" value="Создание плана открытия&lt;br&gt;5.1" style="rounded=0;whiteSpace=wrap;html=1;" parent="1" vertex="1">
          <mxGeometry x="990" y="190" width="120" height="70" as="geometry" />
        </mxCell>
        <mxCell id="GSTDGdenrgdqHvGgqOck-2" value="Составление ТЗ сайта&lt;br&gt;4.1" style="rounded=0;whiteSpace=wrap;html=1;" parent="1" vertex="1">
          <mxGeometry x="800" y="200" width="120" height="50" as="geometry" />
        </mxCell>
        <mxCell id="GSTDGdenrgdqHvGgqOck-4" value="Создание плана мероприятий &lt;br&gt;5.5" style="rounded=0;whiteSpace=wrap;html=1;" parent="1" vertex="1">
          <mxGeometry x="990" y="570" width="120" height="70" as="geometry" />
        </mxCell>
      </root>
    </mxGraphModel>
  </diagram>
</mxfile>
